<?xml version="1.0" encoding="utf-8"?>
<!-- Generator: Adobe Illustrator 16.0.4, SVG Export Plug-In . SVG Version: 6.00 Build 0)  -->
<!DOCTYPE svg PUBLIC "-//W3C//DTD SVG 1.1//EN" "http://www.w3.org/Graphics/SVG/1.1/DTD/svg11.dtd">
<svg version="1.1" id="Layer_1" xmlns="http://www.w3.org/2000/svg" xmlns:xlink="http://www.w3.org/1999/xlink" x="0px" y="0px"
	 width="75px" height="75px" viewBox="0 0 75 75" enable-background="new 0 0 75 75" xml:space="preserve">
<title>filled Starburst</title>
<g>
	<title>Layer 1</title>
	<g id="layer1">
		<path id="path2182" stroke="#000000" stroke-width="7.8883" stroke-linecap="round" stroke-linejoin="round" d="M53.662,57.445
			l-0.607,5.059l-4.736-1.535l-1.814,4.743l-4.216-2.693l-2.907,4.133l-3.43-3.687l-3.818,3.261l-2.428-4.444l-4.489,2.186
			l-1.275-4.927l-4.876,0.971l-0.042-5.096l-4.959-0.304l1.196-4.944l-4.73-1.562l2.357-4.485l-4.203-2.716l3.371-3.743
			l-3.413-3.706l4.172-2.765l-2.407-4.459l4.712-1.614l-1.25-4.933l4.955-0.361l-0.016-5.096l4.888,0.914l1.22-4.94l4.512,2.132
			l2.379-4.475l3.853,3.217l3.391-3.727l2.952,4.098l4.187-2.744l1.867,4.722l4.719-1.59l0.664,5.05l4.957-0.337l-0.582,5.062
			l4.883,0.938L60.906,27.8l4.502,2.155l-2.889,4.146l3.838,3.235l-3.801,3.28l2.934,4.112l-4.479,2.208l1.844,4.731l-4.873,1
			l0.641,5.056L53.662,57.445z"/>
	</g>
</g>
<text transform="matrix(0.9546 0 0 1 16.9834 44.3506)" fill="#FFFFFF" font-family="'MyriadPro-Regular'" font-size="24">Trial</text>
</svg>
